<svg
  width="1000"   
  height="1000"  
  viewBox="15 15 600 114"
  fill="none"
  xmlns="http://www.w3.org/2000/svg"
>
  <path
    fillRule="evenodd"
    clipRule="evenodd"
    d="M28.5117 14.5811L28.2957 14.9561L26.2038 18.5747H27.7617V31.4687L16.5948 37.9157L15.8157 36.5663L13.5117 40.562H13.944L18.1242 40.5644L17.3448 39.215L28.5117 32.768L39.6786 39.215L38.8992 40.5644L43.5117 40.562L43.2957 40.187L41.2077 36.5663L40.4286 37.916L29.2617 31.469V18.5744H30.8196L28.5117 14.5811Z"
    fill="#D2D2D3"
  />
  <path
    fillRule="evenodd"
    clipRule="evenodd"
    d="M28.2292 22.7624L19.4554 28.5161C19.2532 28.6622 19.1989 28.8284 19.1953 28.9796V37.5776C19.1953 37.7666 19.2937 37.9424 19.4554 38.0411L28.2292 43.7945C28.4407 43.91 28.6558 43.8905 28.7986 43.7915L37.5682 38.0411C37.6477 37.9926 37.7133 37.9245 37.7588 37.8433C37.8044 37.7622 37.8283 37.6707 37.8283 37.5776V28.9796C37.8265 28.7504 37.7293 28.6295 37.5598 28.5104L28.7944 22.7624C28.5856 22.6433 28.4218 22.7 28.2292 22.7624ZM28.5118 23.8604L36.1663 28.9322L28.507 34.094L20.7808 28.9793L28.5118 23.8604ZM20.2798 29.9453L27.9694 35.0381V42.3656L20.2804 37.2728L20.2798 29.9453ZM36.7438 29.9453V37.2725L29.0542 42.3653V35.0375L36.7438 29.9453Z"
    fill="#D2D2D3"
  />
</svg>
