<svg width="25" height="25" viewBox="0 0 25 25" fill="none" xmlns="http://www.w3.org/2000/svg">
<path opacity="0.2" d="M15.0365 11.7447L7.6238 19.1574C7.51442 19.2667 7.3661 19.3281 7.21146 19.3281C7.05682 19.3281 6.9085 19.2667 6.79912 19.1574L5.29047 17.651C5.18116 17.5416 5.11975 17.3933 5.11975 17.2386C5.11975 17.084 5.18116 16.9357 5.29047 16.8263L12.7032 9.41138L15.0365 11.7447Z" fill="white"/>
<path d="M20.2866 14.6614C20.2866 14.8161 20.2251 14.9645 20.1157 15.0739C20.0063 15.1833 19.8579 15.2447 19.7032 15.2447H18.5366V16.4114C18.5366 16.5661 18.4751 16.7145 18.3657 16.8239C18.2563 16.9333 18.1079 16.9947 17.9532 16.9947C17.7985 16.9947 17.6501 16.9333 17.5408 16.8239C17.4314 16.7145 17.3699 16.5661 17.3699 16.4114V15.2447H16.2032C16.0485 15.2447 15.9001 15.1833 15.7908 15.0739C15.6814 14.9645 15.6199 14.8161 15.6199 14.6614C15.6199 14.5067 15.6814 14.3583 15.7908 14.2489C15.9001 14.1395 16.0485 14.078 16.2032 14.078H17.3699V12.9114C17.3699 12.7567 17.4314 12.6083 17.5408 12.4989C17.6501 12.3895 17.7985 12.328 17.9532 12.328C18.1079 12.328 18.2563 12.3895 18.3657 12.4989C18.4751 12.6083 18.5366 12.7567 18.5366 12.9114V14.078H19.7032C19.8579 14.078 20.0063 14.1395 20.1157 14.2489C20.2251 14.3583 20.2866 14.5067 20.2866 14.6614ZM6.28656 8.82804H7.45323V9.99471C7.45323 10.1494 7.51469 10.2978 7.62408 10.4072C7.73348 10.5166 7.88185 10.578 8.03656 10.578C8.19127 10.578 8.33965 10.5166 8.44904 10.4072C8.55844 10.2978 8.6199 10.1494 8.6199 9.99471V8.82804H9.78656C9.94127 8.82804 10.0896 8.76659 10.199 8.65719C10.3084 8.54779 10.3699 8.39942 10.3699 8.24471C10.3699 8.09 10.3084 7.94163 10.199 7.83223C10.0896 7.72284 9.94127 7.66138 9.78656 7.66138H8.6199V6.49471C8.6199 6.34 8.55844 6.19163 8.44904 6.08223C8.33965 5.97284 8.19127 5.91138 8.03656 5.91138C7.88185 5.91138 7.73348 5.97284 7.62408 6.08223C7.51469 6.19163 7.45323 6.34 7.45323 6.49471V7.66138H6.28656C6.13185 7.66138 5.98348 7.72284 5.87408 7.83223C5.76469 7.94163 5.70323 8.09 5.70323 8.24471C5.70323 8.39942 5.76469 8.54779 5.87408 8.65719C5.98348 8.76659 6.13185 8.82804 6.28656 8.82804ZM15.6199 17.578H15.0366V16.9947C15.0366 16.84 14.9751 16.6916 14.8657 16.5822C14.7563 16.4728 14.6079 16.4114 14.4532 16.4114C14.2985 16.4114 14.1501 16.4728 14.0408 16.5822C13.9314 16.6916 13.8699 16.84 13.8699 16.9947V17.578H13.2866C13.1319 17.578 12.9835 17.6395 12.8741 17.7489C12.7647 17.8583 12.7032 18.0067 12.7032 18.1614C12.7032 18.3161 12.7647 18.4645 12.8741 18.5739C12.9835 18.6833 13.1319 18.7447 13.2866 18.7447H13.8699V19.328C13.8699 19.4828 13.9314 19.6311 14.0408 19.7405C14.1501 19.8499 14.2985 19.9114 14.4532 19.9114C14.6079 19.9114 14.7563 19.8499 14.8657 19.7405C14.9751 19.6311 15.0366 19.4828 15.0366 19.328V18.7447H15.6199C15.7746 18.7447 15.923 18.6833 16.0324 18.5739C16.1418 18.4645 16.2032 18.3161 16.2032 18.1614C16.2032 18.0067 16.1418 17.8583 16.0324 17.7489C15.923 17.6395 15.7746 17.578 15.6199 17.578ZM18.1946 9.41138L8.03656 19.5694C7.81779 19.788 7.52116 19.9108 7.21188 19.9108C6.90259 19.9108 6.60596 19.788 6.38719 19.5694L4.87781 18.0615C4.76945 17.9531 4.68349 17.8245 4.62484 17.683C4.5662 17.5414 4.53601 17.3897 4.53601 17.2364C4.53601 17.0832 4.5662 16.9315 4.62484 16.7899C4.68349 16.6483 4.76945 16.5197 4.87781 16.4114L15.0366 6.25336C15.1449 6.14499 15.2735 6.05903 15.4151 6.00039C15.5567 5.94174 15.7084 5.91155 15.8616 5.91155C16.0148 5.91155 16.1666 5.94174 16.3081 6.00039C16.4497 6.05903 16.5783 6.14499 16.6867 6.25336L18.1946 7.76127C18.3029 7.86961 18.3889 7.99824 18.4476 8.1398C18.5062 8.28136 18.5364 8.43309 18.5364 8.58632C18.5364 8.73956 18.5062 8.89129 18.4476 9.03285C18.3889 9.17441 18.3029 9.30304 18.1946 9.41138ZM14.2111 11.7447L12.7032 10.2361L5.70323 17.2361L7.21115 18.7447L14.2111 11.7447ZM17.3699 8.58669L15.8613 7.07804L13.5279 9.41138L15.0366 10.92L17.3699 8.58669Z" fill="white"/>
</svg>
