<svg width="25" height="25" viewBox="0 0 25 25" fill="none" xmlns="http://www.w3.org/2000/svg">
<path fill-rule="evenodd" clip-rule="evenodd" d="M6.88068 7.38105C7.17357 7.08815 7.64845 7.08815 7.94134 7.38105L12.411 11.8507L16.8807 7.38105C17.1736 7.08815 17.6484 7.08815 17.9413 7.38105C18.2342 7.67394 18.2342 8.14881 17.9413 8.44171L13.4717 12.9114L17.9413 17.381C18.2342 17.6739 18.2342 18.1488 17.9413 18.4417C17.6484 18.7346 17.1736 18.7346 16.8807 18.4417L12.411 13.972L7.94134 18.4417C7.64845 18.7346 7.17357 18.7346 6.88068 18.4417C6.58779 18.1488 6.58779 17.6739 6.88068 17.381L11.3504 12.9114L6.88068 8.44171C6.58779 8.14881 6.58779 7.67394 6.88068 7.38105Z" fill="#929294"/>
</svg>
