<svg width="17" height="19" viewBox="0 0 17 19" fill="none" xmlns="http://www.w3.org/2000/svg">
<path d="M6.53601 3.91138H10.286C10.286 3.4141 10.0885 2.93718 9.73684 2.58555C9.38521 2.23392 8.90829 2.03638 8.41101 2.03638C7.91373 2.03638 7.43682 2.23392 7.08519 2.58555C6.73356 2.93718 6.53601 3.4141 6.53601 3.91138ZM5.41101 3.91138C5.41101 3.11573 5.72708 2.35267 6.28969 1.79006C6.8523 1.22745 7.61536 0.911377 8.41101 0.911377C9.20666 0.911377 9.96972 1.22745 10.5323 1.79006C11.0949 2.35267 11.411 3.11573 11.411 3.91138H16.0985C16.2477 3.91138 16.3908 3.97064 16.4963 4.07613C16.6018 4.18162 16.661 4.32469 16.661 4.47388C16.661 4.62306 16.6018 4.76614 16.4963 4.87162C16.3908 4.97711 16.2477 5.03638 16.0985 5.03638H15.116L14.2033 15.9886C14.1369 16.7854 13.7735 17.5281 13.1851 18.0694C12.5968 18.6108 11.8265 18.9113 11.027 18.9114H5.79501C4.99551 18.9113 4.22522 18.6108 3.63689 18.0694C3.04856 17.5281 2.68517 16.7854 2.61876 15.9886L1.70601 5.03638H0.723511C0.574327 5.03638 0.431252 4.97711 0.325763 4.87162C0.220274 4.76614 0.161011 4.62306 0.161011 4.47388C0.161011 4.32469 0.220274 4.18162 0.325763 4.07613C0.431252 3.97064 0.574327 3.91138 0.723511 3.91138H5.41101ZM3.74001 15.8949C3.7829 16.4104 4.01798 16.891 4.39862 17.2414C4.77926 17.5918 5.27767 17.7863 5.79501 17.7864H11.027C11.5444 17.7863 12.0428 17.5918 12.4234 17.2414C12.804 16.891 13.0391 16.4104 13.082 15.8949L13.988 5.03638H2.83476L3.74001 15.8949ZM6.72351 7.66138C6.8727 7.66138 7.01577 7.72064 7.12126 7.82613C7.22675 7.93162 7.28601 8.07469 7.28601 8.22388V14.5989C7.28601 14.7481 7.22675 14.8911 7.12126 14.9966C7.01577 15.1021 6.8727 15.1614 6.72351 15.1614C6.57433 15.1614 6.43125 15.1021 6.32577 14.9966C6.22028 14.8911 6.16101 14.7481 6.16101 14.5989V8.22388C6.16101 8.07469 6.22028 7.93162 6.32577 7.82613C6.43125 7.72064 6.57433 7.66138 6.72351 7.66138ZM10.661 8.22388C10.661 8.07469 10.6018 7.93162 10.4963 7.82613C10.3908 7.72064 10.2477 7.66138 10.0985 7.66138C9.94933 7.66138 9.80625 7.72064 9.70077 7.82613C9.59528 7.93162 9.53601 8.07469 9.53601 8.22388V14.5989C9.53601 14.7481 9.59528 14.8911 9.70077 14.9966C9.80625 15.1021 9.94933 15.1614 10.0985 15.1614C10.2477 15.1614 10.3908 15.1021 10.4963 14.9966C10.6018 14.8911 10.661 14.7481 10.661 14.5989V8.22388Z" fill="white"/>
</svg>
