<svg width="24" height="24" viewBox="0 0 24 24" fill="none" xmlns="http://www.w3.org/2000/svg">
<path fill-rule="evenodd" clip-rule="evenodd" d="M12 4.8279H5.98331V2.14457C5.98331 1.78558 5.69229 1.49457 5.33331 1.49457C4.97432 1.49457 4.68331 1.78558 4.68331 2.14457V4.8279H1.99998C1.64099 4.8279 1.34998 5.11892 1.34998 5.4779C1.34998 5.83689 1.64099 6.1279 1.99998 6.1279H4.68331V18.1612H1.99998C1.64099 18.1612 1.34998 18.4522 1.34998 18.8112C1.34998 19.1702 1.64099 19.4612 1.99998 19.4612H4.68331V22.1446C4.68331 22.5036 4.97432 22.7946 5.33331 22.7946C5.69229 22.7946 5.98331 22.5036 5.98331 22.1446V19.4612H18.0166V22.1446C18.0166 22.5036 18.3077 22.7946 18.6666 22.7946C19.0256 22.7946 19.3166 22.5036 19.3166 22.1446V19.4612H22C22.359 19.4612 22.65 19.1702 22.65 18.8112C22.65 18.4522 22.359 18.1612 22 18.1612H19.3166V12.1446H18.0166V18.1612H5.98331V6.1279H12V4.8279Z" fill="#D2D2D3"/>
<path d="M19.9075 5.05824L20.8606 4.10739L19.5899 2.83959L18.6368 3.79044M19.9075 5.05824L15.5168 9.30988L13.7228 9.82247L14.3208 7.97145L18.6368 3.79044M19.9075 5.05824L18.6368 3.79044" stroke="#D2D2D3" stroke-linecap="round" stroke-linejoin="round"/>
<path d="M13.1202 6.10915C13.4792 6.10637 13.7679 5.8131 13.7652 5.45413C13.7624 5.09516 13.4691 4.8064 13.1101 4.80919L13.1202 6.10915ZM10.8798 6.12651L13.1202 6.10915L13.1101 4.80919L10.8697 4.82655L10.8798 6.12651Z" fill="#D2D2D3"/>
<path d="M19.3156 11.0478C19.3156 10.6888 19.0246 10.3978 18.6656 10.3978C18.3067 10.3978 18.0156 10.6888 18.0156 11.0478H19.3156ZM19.3156 13.2882V11.0478H18.0156V13.2882H19.3156Z" fill="#D2D2D3"/>
</svg>
