<svg width="21" height="20" viewBox="0 0 21 20" fill="none" xmlns="http://www.w3.org/2000/svg">
<path d="M10.2111 2.48871C11.0318 2.48871 11.8189 2.81472 12.3992 3.39504C12.9795 3.97535 13.3055 4.76242 13.3055 5.5831C13.3055 6.23045 13.0988 6.72555 12.7819 7.11792C12.5583 7.38442 12.2983 7.61817 12.0096 7.81231L11.8029 7.95712C11.4786 8.1824 11.2446 8.34949 11.0775 8.55496C10.9064 8.76264 10.8182 9.02631 10.83 9.29514V10.5329C10.83 10.697 10.7648 10.8544 10.6487 10.9705C10.5326 11.0866 10.3752 11.1518 10.2111 11.1518C10.047 11.1518 9.88954 11.0866 9.77348 10.9705C9.65742 10.8544 9.59222 10.697 9.59222 10.5329V9.29514C9.59222 8.65274 9.80016 8.16135 10.1183 7.7727C10.3472 7.49296 10.6295 7.27264 10.8807 7.09193L11.0949 6.94216C11.4167 6.71813 11.6506 6.54979 11.8177 6.34185C11.992 6.12854 12.0811 5.85823 12.0677 5.5831C12.0677 5.09069 11.8721 4.61845 11.5239 4.27026C11.1757 3.92208 10.7035 3.72647 10.2111 3.72647C9.71868 3.72647 9.24644 3.92208 8.89825 4.27026C8.55007 4.61845 8.35446 5.09069 8.35446 5.5831C8.35446 5.74724 8.28925 5.90465 8.17319 6.02072C8.05713 6.13678 7.89972 6.20198 7.73558 6.20198C7.57144 6.20198 7.41403 6.13678 7.29796 6.02072C7.1819 5.90465 7.1167 5.74724 7.1167 5.5831C7.1167 4.76242 7.44271 3.97535 8.02303 3.39504C8.60334 2.81472 9.39041 2.48871 10.2111 2.48871ZM10.2111 12.5145C10.4983 12.5145 10.7738 12.6287 10.9769 12.8318C11.18 13.0349 11.2941 13.3103 11.2941 13.5976C11.2941 13.8848 11.18 14.1603 10.9769 14.3634C10.7738 14.5665 10.4983 14.6806 10.2111 14.6806C9.92386 14.6806 9.64838 14.5665 9.44527 14.3634C9.24216 14.1603 9.12806 13.8848 9.12806 13.5976C9.12806 13.3103 9.24216 13.0349 9.44527 12.8318C9.64838 12.6287 9.92386 12.5145 10.2111 12.5145Z" fill="#D2D2D3"/>
<path fill-rule="evenodd" clip-rule="evenodd" d="M10.2113 17.342C11.6719 17.342 12.922 17.1725 13.9865 16.8605C15.2243 17.7257 16.8705 18.6182 18.9994 19.6702C20.1332 20.2347 21.215 18.9548 20.4971 17.9126C19.5973 16.5882 18.8138 15.301 18.1949 13.8404C19.1059 12.3922 19.4821 10.6099 19.4821 8.67896C19.4821 3.88883 17.1552 0.0146484 10.199 0.0146484C3.24276 0.0146484 0.915771 3.90121 0.915771 8.67896C0.915771 13.4691 3.24276 17.3433 10.199 17.3433L10.2113 17.342ZM17.1552 13.1832C17.0489 13.3513 16.9848 13.5426 16.9682 13.7409C16.9516 13.9391 16.9831 14.1384 17.0599 14.3219C17.6985 15.8443 18.508 17.1811 19.3992 18.4931C17.3569 17.4745 15.8345 16.6365 14.6957 15.8443C14.5441 15.7385 14.3706 15.668 14.1881 15.638C14.0056 15.608 13.8187 15.6193 13.6412 15.6711C12.7029 15.9446 11.5741 16.103 10.2126 16.103C6.95727 16.103 5.01399 15.2019 3.86287 13.9617C2.69814 12.6992 2.16591 10.8921 2.16591 8.67648C2.16591 6.46089 2.70309 4.64139 3.86164 3.39125C5.00904 2.15349 6.95603 1.24993 10.2113 1.24993C13.4666 1.24993 15.4099 2.15102 16.561 3.39125C17.7245 4.65377 18.2568 6.46089 18.2568 8.67648C18.2568 10.4589 17.9052 11.9937 17.1576 13.1819L17.1552 13.1832Z" fill="#D2D2D3"/>
</svg>
