<svg width="15" height="15" viewBox="0 0 15 15" fill="none" xmlns="http://www.w3.org/2000/svg">
<path fill-rule="evenodd" clip-rule="evenodd" d="M11.0221 13.8711C11.0221 14.0774 11.1041 14.2753 11.2499 14.4211C11.3958 14.567 11.5936 14.6489 11.7999 14.6489C12.0062 14.6489 12.204 14.567 12.3499 14.4211C12.4957 14.2753 12.5777 14.0774 12.5777 13.8711V12.3156H14.1332C14.3395 12.3156 14.5373 12.2336 14.6832 12.0878C14.8291 11.9419 14.911 11.7441 14.911 11.5378C14.911 11.3315 14.8291 11.1337 14.6832 10.9878C14.5373 10.842 14.3395 10.76 14.1332 10.76H12.5777V4.53781H14.1332C14.3395 4.53781 14.5373 4.45587 14.6832 4.31001C14.8291 4.16415 14.911 3.96632 14.911 3.76004C14.911 3.55376 14.8291 3.35593 14.6832 3.21007C14.5373 3.0642 14.3395 2.98226 14.1332 2.98226H12.5777V1.4267C12.5777 1.22042 12.4957 1.02259 12.3499 0.876732C12.204 0.73087 12.0062 0.648926 11.7999 0.648926C11.5936 0.648926 11.3958 0.73087 11.2499 0.876732C11.1041 1.02259 11.0221 1.22042 11.0221 1.4267V2.98226H4.7999V1.4267C4.7999 1.22042 4.71796 1.02259 4.57209 0.876732C4.42623 0.73087 4.2284 0.648926 4.02212 0.648926C3.81584 0.648926 3.61801 0.73087 3.47215 0.876732C3.32629 1.02259 3.24434 1.22042 3.24434 1.4267V2.98226H1.68879C1.48251 2.98226 1.28468 3.0642 1.13882 3.21007C0.992955 3.35593 0.911011 3.55376 0.911011 3.76004C0.911011 3.96632 0.992955 4.16415 1.13882 4.31001C1.28468 4.45587 1.48251 4.53781 1.68879 4.53781H3.24434V10.76H1.68879C1.48251 10.76 1.28468 10.842 1.13882 10.9878C0.992955 11.1337 0.911011 11.3315 0.911011 11.5378C0.911011 11.7441 0.992955 11.9419 1.13882 12.0878C1.28468 12.2336 1.48251 12.3156 1.68879 12.3156H3.24434V13.8711C3.24434 14.0774 3.32629 14.2753 3.47215 14.4211C3.61801 14.567 3.81584 14.6489 4.02212 14.6489C4.2284 14.6489 4.42623 14.567 4.57209 14.4211C4.71796 14.2753 4.7999 14.0774 4.7999 13.8711V12.3156H11.0221V13.8711ZM4.7999 10.76H11.0221V4.53781H4.7999V10.76Z" fill="#CBCBCD"/>
</svg>
