<svg width="25" height="25" viewBox="0 0 25 25" fill="none" xmlns="http://www.w3.org/2000/svg">
<path d="M13.9245 14.1614C13.9024 14.1809 13.8944 14.1882 13.8568 14.218M13.8568 14.218C13.544 14.466 13.1516 14.5942 12.7509 14.5772C12.3207 14.5591 11.9142 14.3751 11.6166 14.0638C11.319 13.7525 11.1535 13.3382 11.1546 12.9076C11.1558 12.477 11.3236 12.0635 11.6228 11.7539L11.8347 11.5782C12.1212 11.3407 12.4817 11.2107 12.8538 11.2107V11.2107C13.2761 11.2107 13.6846 11.3814 13.9838 11.6793V11.6793C14.1132 11.8081 14.2212 11.9593 14.3004 12.1238L14.3143 12.1528C14.5534 12.649 14.5377 13.2302 14.2723 13.7128L14.2098 13.8266C14.124 13.9826 14.0031 14.1166 13.8568 14.218V14.218ZM16.572 16.8747C15.4445 17.4822 14.1703 17.9114 12.822 17.9114C9.8803 17.9114 7.29363 15.868 5.81113 14.3939C5.41947 14.0047 5.22363 13.8105 5.09947 13.428C5.0103 13.1555 5.0103 12.6672 5.09947 12.3947C5.22447 12.0122 5.4203 11.8172 5.81197 11.428C6.55947 10.6847 7.58697 9.79804 8.79863 9.10054V9.10054C9.74887 8.57562 10.7752 8.20218 11.8406 7.99369L11.9886 7.96471C12.2625 7.92915 12.5403 7.91138 12.822 7.91138C15.7645 7.91138 18.3495 9.95471 19.8328 11.4289C20.2245 11.818 20.4195 12.013 20.5445 12.3947C20.6336 12.6672 20.6336 13.1564 20.5445 13.4289C20.4203 13.8089 20.2245 14.0039 19.8345 14.3922L19.832 14.3947C19.6036 14.6214 19.3495 14.8622 19.072 15.1064L17.8485 16.0254L16.572 16.8747Z" stroke="white" stroke-linecap="round" stroke-linejoin="round"/>
<path d="M18.8022 6.25378L6.84169 18.5168" stroke="white" stroke-linecap="round"/>
</svg>
