<svg width="24" height="24" viewBox="0 0 24 24" fill="none" xmlns="http://www.w3.org/2000/svg">
<path d="M14.428 6.7153C15.3617 5.77769 16.7278 5.75815 17.4837 6.51736C18.2417 7.27787 18.2215 8.65304 17.2865 9.59065L15.7088 11.1748C15.62 11.2671 15.5709 11.3905 15.5722 11.5185C15.5735 11.6466 15.625 11.769 15.7157 11.8594C15.8064 11.9498 15.9289 12.001 16.057 12.0019C16.185 12.0029 16.3083 11.9535 16.4003 11.8644L17.9786 10.2802C19.2229 9.03069 19.3792 7.0363 18.1759 5.82782C16.9713 4.61869 14.9808 4.77626 13.7352 6.02576L10.5799 9.19477C9.33562 10.4443 9.17935 12.4387 10.3826 13.6465C10.4276 13.6932 10.4814 13.7305 10.5409 13.7563C10.6004 13.782 10.6644 13.7956 10.7293 13.7963C10.7941 13.797 10.8584 13.7848 10.9185 13.7604C10.9786 13.736 11.0332 13.6999 11.0791 13.6541C11.1251 13.6084 11.1615 13.554 11.1862 13.494C11.2109 13.4341 11.2234 13.3698 11.223 13.3049C11.2226 13.2401 11.2092 13.176 11.1838 13.1164C11.1584 13.0567 11.1213 13.0028 11.0748 12.9576C10.3169 12.1971 10.3377 10.8219 11.2721 9.88431L14.428 6.7153Z" fill="#D2D2D3"/>
<path d="M13.6181 10.3526C13.5265 10.2608 13.4023 10.2092 13.2727 10.209C13.1431 10.2088 13.0187 10.2601 12.9269 10.3516C12.8351 10.4432 12.7835 10.5674 12.7833 10.697C12.7831 10.8266 12.8344 10.951 12.9259 11.0428C13.6838 11.8033 13.6636 13.1778 12.7286 14.1161L9.57265 17.2845C8.6383 18.2221 7.27224 18.2416 6.51629 17.4824C5.75839 16.7219 5.77922 15.3467 6.71358 14.4091L8.2919 12.8249C8.33717 12.7795 8.37306 12.7256 8.39749 12.6662C8.42193 12.6069 8.43445 12.5434 8.43433 12.4792C8.43421 12.4151 8.42145 12.3516 8.39679 12.2924C8.37213 12.2331 8.33604 12.1794 8.2906 12.1341C8.24515 12.0888 8.19123 12.0529 8.13192 12.0285C8.0726 12.0041 8.00906 11.9915 7.94491 11.9917C7.88076 11.9918 7.81726 12.0045 7.75804 12.0292C7.69882 12.0539 7.64503 12.0899 7.59976 12.1354L6.02144 13.7196C4.77715 14.9697 4.62088 16.9635 5.82415 18.1719C7.02872 19.3817 9.0192 19.2235 10.2648 17.974L13.4208 14.805C14.6651 13.5561 14.8213 11.5604 13.6181 10.3526Z" fill="#D2D2D3"/>
</svg>
