<svg width="25" height="24" viewBox="0 0 25 24" fill="none" xmlns="http://www.w3.org/2000/svg">
<path d="M9.29257 16.3114H5.86483C5.57295 16.3114 5.42701 16.3114 5.30352 16.3239C4.73011 16.381 4.19414 16.6348 3.78667 17.0423C3.3792 17.4498 3.12535 17.9858 3.06826 18.5592C3.05579 18.6827 3.05579 18.8286 3.05579 19.1205C3.05579 19.4698 3.05579 19.6444 3.07075 19.7829C3.14317 20.4296 3.46542 21.0224 3.96877 21.4349C4.47211 21.8473 5.11671 22.0468 5.76504 21.9907C5.90225 21.9782 6.07439 21.9446 6.41616 21.8759L6.78538 21.8011C7.25938 21.7076 7.49762 21.6602 7.6972 21.5828C8.09913 21.4276 8.45399 21.1709 8.72724 20.8377C9.00048 20.5046 9.18279 20.1064 9.25639 19.6818C9.29257 19.4698 9.29257 19.2278 9.29257 18.745V7.92782C9.29257 5.96945 9.29257 4.99151 9.85762 4.30171C10.4239 3.61191 11.3831 3.41982 13.3041 3.03563L15.7988 2.53668C18.5592 1.98409 19.94 1.70842 20.8531 2.45684C21.7661 3.20527 21.7661 4.61355 21.7661 7.42887V7.57981M21.7661 7.57981V13.8167M21.7661 7.57981L9.29257 10.0746M21.7661 13.8167V16.249C21.7661 16.7343 21.7661 16.975 21.7287 17.1871C21.6553 17.6113 21.4734 18.0094 21.2006 18.3425C20.9278 18.6756 20.5735 18.9325 20.172 19.0881C19.9712 19.1654 19.7342 19.2128 19.2589 19.3076L18.8897 19.3824C18.548 19.4498 18.3771 19.4847 18.2374 19.496C17.5892 19.5517 16.945 19.3521 16.4419 18.9397C15.9388 18.5272 15.6167 17.9346 15.5443 17.2881C15.5293 17.1509 15.5293 16.9763 15.5293 16.627C15.5293 16.3339 15.5293 16.1879 15.5418 16.0644C15.5989 15.491 15.8528 14.955 16.2602 14.5476C16.6677 14.1401 17.2037 13.8862 17.7771 13.8291C17.9006 13.8167 18.0465 13.8167 18.3384 13.8167H21.7661Z" stroke="#D2D2D3" stroke-width="1.3"/>
</svg>
