<svg width="25" height="25" viewBox="0 0 25 25" fill="none" xmlns="http://www.w3.org/2000/svg">
<path d="M16.4944 12.328H12.9944V8.82804C12.9944 8.67333 12.9329 8.52496 12.8235 8.41557C12.7141 8.30617 12.5658 8.24471 12.4111 8.24471C12.2563 8.24471 12.108 8.30617 11.9986 8.41557C11.8892 8.52496 11.8277 8.67333 11.8277 8.82804V12.328H8.32772C8.17301 12.328 8.02464 12.3895 7.91524 12.4989C7.80584 12.6083 7.74438 12.7567 7.74438 12.9114C7.74438 13.0661 7.80584 13.2145 7.91524 13.3239C8.02464 13.4333 8.17301 13.4947 8.32772 13.4947H11.8277V16.9947C11.8277 17.1494 11.8892 17.2978 11.9986 17.4072C12.108 17.5166 12.2563 17.578 12.4111 17.578C12.5658 17.578 12.7141 17.5166 12.8235 17.4072C12.9329 17.2978 12.9944 17.1494 12.9944 16.9947V13.4947H16.4944C16.6491 13.4947 16.7975 13.4333 16.9069 13.3239C17.0163 13.2145 17.0777 13.0661 17.0777 12.9114C17.0777 12.7567 17.0163 12.6083 16.9069 12.4989C16.7975 12.3895 16.6491 12.328 16.4944 12.328Z" fill="white"/>
</svg>
