<svg width="25" height="25" viewBox="0 0 25 25" fill="none" xmlns="http://www.w3.org/2000/svg">
<path d="M12.822 18.3558C13.537 18.3558 14.245 18.215 14.9055 17.9414C15.5661 17.6678 16.1663 17.2667 16.6718 16.7612C17.1774 16.2556 17.5784 15.6554 17.852 14.9949C18.1256 14.3343 18.2665 13.6264 18.2665 12.9114M12.822 18.3558C11.3781 18.3558 9.99325 17.7822 8.97222 16.7612C7.95119 15.7401 7.37758 14.3553 7.37758 12.9114M12.822 18.3558V19.9114M18.2665 12.9114C18.2665 12.1964 18.1256 11.4884 17.852 10.8279C17.5784 10.1673 17.1774 9.56714 16.6718 9.06157C16.1663 8.55601 15.5661 8.15498 14.9055 7.88137C14.245 7.60776 13.537 7.46693 12.822 7.46693M18.2665 12.9114H19.822M12.822 7.46693C11.3781 7.46693 9.99325 8.04054 8.97222 9.06157C7.95119 10.0826 7.37758 11.4674 7.37758 12.9114M12.822 7.46693V5.91138M7.37758 12.9114H5.82202" stroke="#D2D2D3" stroke-width="1.5" stroke-linecap="round" stroke-linejoin="round"/>
</svg>
