<svg width="25" height="24" viewBox="0 0 25 24" fill="none" xmlns="http://www.w3.org/2000/svg">
<path d="M18.1553 11.3333C17.9923 10.1602 17.448 9.07311 16.6064 8.23967C15.7648 7.40623 14.6725 6.87262 13.4978 6.72104C12.323 6.56947 11.1311 6.80833 10.1054 7.40084C9.07983 7.99335 8.27748 8.90663 7.82198 10M7.48865 7.33334V10H10.1553M7.48865 12.6667C7.65169 13.8399 8.19593 14.9269 9.03755 15.7603C9.87917 16.5938 10.9715 17.1274 12.1462 17.279C13.3209 17.4306 14.5129 17.1917 15.5385 16.5992C16.5641 16.0067 17.3665 15.0934 17.822 14M18.1553 16.6667V14H15.4886" stroke="#D2D2D3" stroke-linecap="round" stroke-linejoin="round"/>
</svg>
