<svg width="25" height="25" viewBox="0 0 25 25" fill="none" xmlns="http://www.w3.org/2000/svg">
<path d="M11.411 19.9114C10.9637 19.9114 10.5827 19.7541 10.268 19.4394C9.95335 19.1247 9.79602 18.7434 9.79602 18.2954V16.2954C9.79602 15.8487 9.95335 15.4677 10.268 15.1524C10.5827 14.8377 10.9637 14.6804 11.411 14.6804H13.411C13.8584 14.6804 14.2394 14.8377 14.554 15.1524C14.8687 15.4671 15.026 15.8481 15.026 16.2954V18.2954C15.026 18.7434 14.8687 19.1247 14.554 19.4394C14.2394 19.7541 13.8584 19.9114 13.411 19.9114H11.411ZM11.411 18.9114H13.411C13.591 18.9114 13.7384 18.8537 13.853 18.7384C13.9684 18.6231 14.026 18.4757 14.026 18.2964V16.2964C14.026 16.1164 13.9684 15.9687 13.853 15.8534C13.7377 15.7381 13.5904 15.6807 13.411 15.6814H11.411C11.231 15.6814 11.0837 15.7391 10.969 15.8544C10.8537 15.9704 10.796 16.1181 10.796 16.2974V18.2974C10.796 18.4767 10.8537 18.6241 10.969 18.7394C11.0844 18.8547 11.2317 18.9121 11.411 18.9114ZM3.41102 12.8504C3.29302 12.9271 3.17135 12.9584 3.04602 12.9444C2.92002 12.9304 2.81235 12.8644 2.72302 12.7464C2.63302 12.6284 2.59602 12.5064 2.61202 12.3804C2.62802 12.2544 2.69302 12.1467 2.80702 12.0574L11.436 5.62439C11.5807 5.51705 11.738 5.43972 11.908 5.39239C12.078 5.34505 12.2457 5.32105 12.411 5.32039C12.5764 5.31972 12.744 5.34372 12.914 5.39239C13.084 5.44105 13.2414 5.51839 13.386 5.62439L16.757 8.13439V6.85439C16.757 6.59105 16.8484 6.36805 17.031 6.18539C17.2137 6.00272 17.4364 5.91139 17.699 5.91139C17.9617 5.91139 18.1847 6.00272 18.368 6.18539C18.5514 6.36805 18.6427 6.59072 18.642 6.85339V9.53139L22.04 12.0584C22.154 12.1484 22.218 12.2561 22.232 12.3814C22.246 12.5074 22.2084 12.6291 22.119 12.7464C22.029 12.8644 21.9214 12.9307 21.796 12.9454C21.67 12.9587 21.548 12.9271 21.43 12.8504L12.777 6.43739C12.6744 6.36005 12.5524 6.32139 12.411 6.32139C12.2697 6.32139 12.148 6.35972 12.046 6.43639L3.41102 12.8504Z" fill="#929294"/>
</svg>
