<svg width="25" height="25" viewBox="0 0 25 25" fill="none" xmlns="http://www.w3.org/2000/svg">
<path d="M18.7617 13.7182C18.7617 15.1027 18.3512 15.6492 17.582 16.8004C16.8128 17.9515 15.7196 18.8487 14.4405 19.3785C13.1614 19.9083 11.754 20.047 10.3961 19.7769C9.03822 19.5068 7.79094 18.8401 6.81197 17.8611C5.83301 16.8822 5.16632 15.6349 4.89622 14.277C4.62613 12.9191 4.76475 11.5117 5.29457 10.2326C5.82438 8.95351 6.72159 7.86026 7.87273 7.09109C9.02387 6.32192 10.3773 5.91138 11.7617 5.91138C13.7217 5.91138 15.5962 6.68915 17.0039 8.04249L18.7617 9.80027" stroke="#D2D2D3" stroke-width="1.5" stroke-linecap="round" stroke-linejoin="round"/>
<path d="M20.0603 7.24152V11.1304H16.1714" stroke="#D2D2D3" stroke-width="1.5" stroke-linecap="round" stroke-linejoin="round"/>
</svg>
