<svg width="25" height="24" viewBox="0 0 25 24" fill="none" xmlns="http://www.w3.org/2000/svg">
<path d="M11.711 5C8.87232 5.0049 7.38614 5.0749 6.4355 6.02485C5.41064 7.0497 5.41064 8.69968 5.41064 11.9996C5.41064 15.2996 5.41064 16.9496 6.4355 17.9751C7.46175 19 9.11103 19 12.411 19C15.711 19 17.3609 19 18.3858 17.9751C19.3364 17.0252 19.4057 15.539 19.4106 12.6997" stroke="#D2D2D3" stroke-width="1.5" stroke-linecap="round"/>
<path d="M13.1112 11.3003L19.4115 5M19.4115 5H15.6705M19.4115 5V8.74099M18.7114 5.70004L12.4111 12.0004M12.4111 12.0004H15.2113M12.4111 12.0004V9.20021" stroke="#D2D2D3" stroke-width="1.5" stroke-linecap="round" stroke-linejoin="round"/>
</svg>
