<svg width="25" height="25" viewBox="0 0 25 25" fill="none" xmlns="http://www.w3.org/2000/svg">
<path d="M17.1911 10.2565C17.3315 10.3971 17.4104 10.5877 17.4104 10.7865C17.4104 10.9852 17.3315 11.1759 17.1911 11.3165L12.9411 15.5665C12.8004 15.7069 12.6098 15.7858 12.4111 15.7858C12.2123 15.7858 12.0217 15.7069 11.8811 15.5665L7.63106 11.3165C7.56146 11.2469 7.50625 11.1643 7.46858 11.0733C7.43091 10.9824 7.41153 10.8849 7.41153 10.7865C7.41153 10.6881 7.43091 10.5906 7.46858 10.4997C7.50625 10.4087 7.56146 10.3261 7.63106 10.2565C7.70066 10.1869 7.78329 10.1317 7.87423 10.094C7.96516 10.0563 8.06263 10.037 8.16106 10.037C8.25949 10.037 8.35696 10.0563 8.44789 10.094C8.53883 10.1317 8.62146 10.1869 8.69106 10.2565L12.4111 13.9755L16.1311 10.2565C16.2717 10.116 16.4623 10.0371 16.6611 10.0371C16.8598 10.0371 17.0504 10.116 17.1911 10.2565Z" fill="#D2D2D3"/>
</svg>
