<svg width="20" height="21" viewBox="0 0 20 21" fill="none" xmlns="http://www.w3.org/2000/svg">
<path d="M18.5769 13.0546V10.0306C18.5769 8.84872 18.5892 7.55916 18.1369 6.46723C17.6846 5.3753 17.0216 4.38314 16.1859 3.54742C15.3502 2.71169 14.358 2.04875 13.2661 1.59646C12.1742 1.14417 11.0039 0.911377 9.82195 0.911377C8.64006 0.911377 7.46973 1.14417 6.3778 1.59646C5.28587 2.04875 4.29372 2.71169 3.45799 3.54742C2.62227 4.38314 1.61416 5.3753 1.16187 6.46723C0.709574 7.55916 0.821955 8.72948 0.821955 9.91138V12.9114" stroke="#D2D2D3" stroke-width="1.5" stroke-linecap="round"/>
<path d="M0.846172 11.6181V10.9027H0.130737V11.6181H0.846172ZM0.846172 12.3335H5.13878V10.9027H0.846172V12.3335ZM5.85422 13.049V17.3416H7.28509V13.049H5.85422ZM1.56161 17.3416V11.6181H0.130737V17.3416H1.56161ZM3.70791 19.4879C3.13868 19.4879 2.59276 19.2618 2.19025 18.8593C1.78773 18.4567 1.56161 17.9108 1.56161 17.3416H0.130737C0.130737 18.2903 0.507617 19.2002 1.17847 19.871C1.84932 20.5419 2.75919 20.9188 3.70791 20.9188V19.4879ZM5.85422 17.3416C5.85422 17.9108 5.62809 18.4567 5.22558 18.8593C4.82307 19.2618 4.27715 19.4879 3.70791 19.4879V20.9188C4.65664 20.9188 5.56651 20.5419 6.23736 19.871C6.90821 19.2002 7.28509 18.2903 7.28509 17.3416H5.85422ZM5.13878 12.3335C5.32853 12.3335 5.5105 12.4089 5.64467 12.5431C5.77884 12.6773 5.85422 12.8592 5.85422 13.049H7.28509C7.28509 12.4797 7.05896 11.9338 6.65645 11.5313C6.25394 11.1288 5.70802 10.9027 5.13878 10.9027V12.3335ZM18.6018 11.6181H19.3173V10.9027H18.6018V11.6181ZM14.3092 12.3335H18.6018V10.9027H14.3092V12.3335ZM17.8864 11.6181V17.3416H19.3173V11.6181H17.8864ZM13.5938 17.3416V13.049H12.1629V17.3416H13.5938ZM15.7401 19.4879C15.1709 19.4879 14.6249 19.2618 14.2224 18.8593C13.8199 18.4567 13.5938 17.9108 13.5938 17.3416H12.1629C12.1629 18.2903 12.5398 19.2002 13.2106 19.871C13.8815 20.5419 14.7914 20.9188 15.7401 20.9188V19.4879ZM17.8864 17.3416C17.8864 17.9108 17.6603 18.4567 17.2578 18.8593C16.8552 19.2618 16.3093 19.4879 15.7401 19.4879V20.9188C16.6888 20.9188 17.5987 20.5419 18.2695 19.871C18.9404 19.2002 19.3173 18.2903 19.3173 17.3416H17.8864ZM14.3092 10.9027C13.74 10.9027 13.1941 11.1288 12.7916 11.5313C12.389 11.9338 12.1629 12.4797 12.1629 13.049H13.5938C13.5938 12.8592 13.6692 12.6773 13.8033 12.5431C13.9375 12.4089 14.1195 12.3335 14.3092 12.3335V10.9027Z" fill="#D2D2D3"/>
</svg>
