<svg width="20" height="18" viewBox="0 0 20 18" fill="none" xmlns="http://www.w3.org/2000/svg">
<path d="M13.2383 6.787L8.73827 3.787C8.62529 3.71162 8.49397 3.66834 8.35831 3.66177C8.22266 3.6552 8.08777 3.68558 7.96803 3.74968C7.8483 3.81379 7.74822 3.9092 7.67847 4.02574C7.60873 4.14227 7.57193 4.27556 7.57202 4.41138V10.4114C7.57193 10.5472 7.60873 10.6805 7.67847 10.797C7.74822 10.9136 7.8483 11.009 7.96803 11.0731C8.08777 11.1372 8.22266 11.1676 8.35831 11.161C8.49397 11.1544 8.62529 11.1111 8.73827 11.0358L13.2383 8.03575C13.3411 7.96729 13.4255 7.87447 13.4839 7.76554C13.5422 7.65661 13.5728 7.53495 13.5728 7.41138C13.5728 7.2878 13.5422 7.16614 13.4839 7.05722C13.4255 6.94829 13.3411 6.85546 13.2383 6.787ZM9.07202 9.00982V5.81763L11.4701 7.41138L9.07202 9.00982ZM18.072 0.661377H1.57202C1.1742 0.661377 0.792666 0.819412 0.511361 1.10072C0.230057 1.38202 0.0720215 1.76355 0.0720215 2.16138V12.6614C0.0720215 13.0592 0.230057 13.4407 0.511361 13.722C0.792666 14.0033 1.1742 14.1614 1.57202 14.1614H18.072C18.4698 14.1614 18.8514 14.0033 19.1327 13.722C19.414 13.4407 19.572 13.0592 19.572 12.6614V2.16138C19.572 1.76355 19.414 1.38202 19.1327 1.10072C18.8514 0.819412 18.4698 0.661377 18.072 0.661377ZM18.072 12.6614H1.57202V2.16138H18.072V12.6614ZM19.572 16.4114C19.572 16.6103 19.493 16.8011 19.3524 16.9417C19.2117 17.0824 19.0209 17.1614 18.822 17.1614H0.822021C0.623109 17.1614 0.432344 17.0824 0.291691 16.9417C0.151039 16.8011 0.0720215 16.6103 0.0720215 16.4114C0.0720215 16.2125 0.151039 16.0217 0.291691 15.881C0.432344 15.7404 0.623109 15.6614 0.822021 15.6614H18.822C19.0209 15.6614 19.2117 15.7404 19.3524 15.881C19.493 16.0217 19.572 16.2125 19.572 16.4114Z" fill="#D2D2D3"/>
</svg>
