<svg width="18" height="12" viewBox="0 0 18 12" fill="none" xmlns="http://www.w3.org/2000/svg">
<path d="M9.92447 7.16138C9.90236 7.1809 9.8944 7.1882 9.85679 7.21802M9.85679 7.21802C9.54403 7.46604 9.15165 7.59419 8.75089 7.57725C8.32066 7.55906 7.91417 7.37506 7.6166 7.0638C7.31902 6.75255 7.15347 6.3382 7.15463 5.90759C7.15578 5.47698 7.32356 5.06353 7.6228 4.75388L7.83471 4.5782C8.1212 4.34069 8.48165 4.21071 8.8538 4.21071V4.21071C9.27608 4.21071 9.68457 4.38138 9.98382 4.67932V4.67932C10.1132 4.80812 10.2212 4.95935 10.3004 5.1238L10.3143 5.1528C10.5534 5.64902 10.5377 6.2302 10.2723 6.71283L10.2098 6.82658C10.124 6.9826 10.0031 7.11659 9.85679 7.21802V7.21802ZM12.572 9.87471C11.4445 10.4822 10.1703 10.9114 8.82197 10.9114C5.8803 10.9114 3.29363 8.86804 1.81113 7.39388C1.41947 7.00471 1.22363 6.81054 1.09947 6.42804C1.0103 6.15554 1.0103 5.66721 1.09947 5.39471C1.22447 5.01221 1.4203 4.81721 1.81197 4.42804C2.55947 3.68471 3.58697 2.79804 4.79863 2.10054V2.10054C5.74887 1.57562 6.7752 1.20218 7.84057 0.993686L7.98863 0.96471C8.26252 0.929155 8.5403 0.911377 8.82197 0.911377C11.7645 0.911377 14.3495 2.95471 15.8328 4.42888C16.2245 4.81804 16.4195 5.01304 16.5445 5.39471C16.6336 5.66721 16.6336 6.15638 16.5445 6.42888C16.4203 6.80888 16.2245 7.00388 15.8345 7.39221L15.832 7.39471C15.6036 7.62138 15.3495 7.86221 15.072 8.10638L13.8485 9.02537L12.572 9.87471Z" stroke="white" stroke-linecap="round" stroke-linejoin="round"/>
</svg>
